# xmcd
#
# Track frame offsets: 
#        150
#        8230
#        22866
#        45577
#        57570
#        70850
#        83484
#        94694
#        110513
#        127363
#        138855
#        154570
#        168245
#        182714
#        198180
#
# Disc length: 2745 seconds
#
# Revision: 0
# Processed by: cddbd v1.4PL0 Copyright (c) Steve Scherf et al.
# Submitted via: ExactAudioCopy v0.95a3
#
DISCID=bc0ab70f
DTITLE=Tortilla Flat - Big Fish Hot Legs
DYEAR=2001
DGENRE=Blues
TTITLE0=Big Fish Hot Legs
TTITLE1=Little Miss Monster
TTITLE2=Silly Dilly Woman
TTITLE3=Homework
TTITLE4=Slowdown Your Lowdown Evil Ways
TTITLE5=Too Late
TTITLE6=Sweet Little Girl With A Rosette In Her Hair
TTITLE7=That's All I Need
TTITLE8=Break It Up
TTITLE9=My Baby Chose Bottle Instead Of Me
TTITLE10=I Don't Play
TTITLE11=You Better Be Sure
TTITLE12=If We Talk About Music - It's Rhythm And Blues
TTITLE13=Double Date
TTITLE14=Just Goofin' Around
EXTD=
EXTT0=
EXTT1=
EXTT2=
EXTT3=
EXTT4=
EXTT5=
EXTT6=
EXTT7=
EXTT8=
EXTT9=
EXTT10=
EXTT11=
EXTT12=
EXTT13=
EXTT14=
PLAYORDER=
